<svg xmlns="http://www.w3.org/2000/svg" viewBox="0 0 263.63 296.16"><g id="Calque_2" data-name="Calque 2"><g id="Calque_1-2" data-name="Calque 1"><path d="M0,177.68q0-40.49,0-80.95C.1,75.21,15.45,59.2,37,59.06q62.22-.41,124.43,0c20.92.12,36.81,15.74,36.92,36.73q.44,82.2,0,164.4c-.1,20.3-16.79,36-37.15,36q-62,0-123.93,0c-20.34,0-36.8-15.67-37-36-.33-27.48-.08-55-.08-82.45Zm27.52-.25q0,39.47,0,78.94c0,9,3.09,12.21,11.93,12.23q59.72.07,119.41,0c8.92,0,12.15-3.27,12.15-12.06q0-78.95,0-157.88c0-9-3.42-12.32-12.49-12.32q-59.2,0-118.41,0c-9.44,0-12.59,3.19-12.6,12.64Q27.55,138.2,27.56,177.43Z"/><path d="M263.45,114.08c0,24.66-.53,49.32.17,74,.57,20.28-14.22,40-43.65,36-6.35-.86-10.87-6.86-10.83-13.63a13.28,13.28,0,0,1,11.27-13.24,62.38,62.38,0,0,1,7-.22c6.44-.14,8.4-2,8.54-8.33,0-.67,0-1.33,0-2q0-72.46,0-144.91c0-11.34-2.74-14-14.22-14q-53,0-105.94,0c-8.46,0-8.71.2-10.52,8.43-1.4,6.37-7.94,11.29-14.35,10.8a13.88,13.88,0,0,1-12.78-13c-1-17.21,13.69-33.31,32-33.52q59-.66,117.92,0a35.86,35.86,0,0,1,35.2,35.31c.47,26.14.12,52.29.12,78.44Z"/></g></g></svg>